<svg width="106" height="36" viewBox="0 0 106 36" fill="none" xmlns="http://www.w3.org/2000/svg">
<path d="M66.9761 31H61.9361L50.5241 13.756V31H45.4841V5.836H50.5241L61.9361 23.116V5.836H66.9761V31ZM74.5128 8.68C73.6248 8.68 72.8808 8.404 72.2808 7.852C71.7048 7.276 71.4168 6.568 71.4168 5.728C71.4168 4.888 71.7048 4.192 72.2808 3.64C72.8808 3.064 73.6248 2.776 74.5128 2.776C75.4008 2.776 76.1328 3.064 76.7088 3.64C77.3088 4.192 77.6088 4.888 77.6088 5.728C77.6088 6.568 77.3088 7.276 76.7088 7.852C76.1328 8.404 75.4008 8.68 74.5128 8.68ZM76.9968 11.056V31H71.9568V11.056H76.9968ZM91.1203 15.196H87.6283V31H82.5163V15.196H80.2483V11.056H82.5163V10.048C82.5163 7.6 83.2123 5.8 84.6043 4.648C85.9963 3.496 88.0963 2.956 90.9043 3.028V7.276C89.6803 7.252 88.8283 7.456 88.3483 7.888C87.8683 8.32 87.6283 9.1 87.6283 10.228V11.056H91.1203V15.196ZM100.254 15.196V24.844C100.254 25.516 100.41 26.008 100.722 26.32C101.058 26.608 101.61 26.752 102.378 26.752H104.718V31H101.55C97.3025 31 95.1785 28.936 95.1785 24.808V15.196H92.8025V11.056H95.1785V6.124H100.254V11.056H104.718V15.196H100.254Z" fill="white"/>
<path d="M9.83478 4.61975V21.481L21.5458 36.0001V18.3559L9.83478 4.61975Z" fill="url(#paint0_linear_717_3784)"/>
<path d="M9.77007 4.53564H0.00012207V35.9806H9.82183L9.8283 21.4745L9.83477 21.481V4.61976L9.77007 4.53564Z" fill="white"/>
<path d="M32.228 3.46155H29.737V5.95256H32.228V3.46155Z" fill="white"/>
<path d="M34.2597 1.4364H32.228V3.46803H34.2597V1.4364Z" fill="url(#paint1_linear_717_3784)"/>
<path d="M32.228 0H30.7916V1.43638H32.228V0Z" fill="white"/>
<path d="M31.3804 7.31775H28.1453V10.5528H31.3804V7.31775Z" fill="url(#paint2_linear_717_3784)"/>
<path d="M28.1453 13.3998V10.5529H24.975V7.31782H28.1453V4.53564H21.6105V18.4206L21.5458 18.3559V36.0001L31.3804 35.9806V13.3998H28.1453Z" fill="white"/>
<defs>
<linearGradient id="paint0_linear_717_3784" x1="5.10158" y1="4.61975" x2="22.4734" y2="5.24305" gradientUnits="userSpaceOnUse">
<stop stop-color="#02FCCF"/>
<stop offset="1" stop-color="#1448FF"/>
</linearGradient>
<linearGradient id="paint1_linear_717_3784" x1="31.4069" y1="1.4364" x2="34.3968" y2="1.72386" gradientUnits="userSpaceOnUse">
<stop stop-color="#FCAD02"/>
<stop offset="1" stop-color="#FF0041"/>
</linearGradient>
<linearGradient id="paint2_linear_717_3784" x1="26.8378" y1="7.31775" x2="31.5988" y2="7.77549" gradientUnits="userSpaceOnUse">
<stop stop-color="#FCAD02"/>
<stop offset="1" stop-color="#FF0041"/>
</linearGradient>
</defs>
</svg>
